<?xml version="1.0" encoding="UTF-8" standalone="no"?>
<svg width="1930px" height="642px" viewBox="0 0 1930 642" version="1.1" xmlns="http://www.w3.org/2000/svg" xmlns:xlink="http://www.w3.org/1999/xlink">
    <!-- Generator: Sketch 3.6.1 (26313) - http://www.bohemiancoding.com/sketch -->
    <title>Group</title>
    <desc>Created with Sketch.</desc>
    <defs>
        <rect id="path-1" x="0" y="0" width="2560" height="642"></rect>
        <path id="path-3" d="M654,-40 C654,-40 654.000001,65.1570338 654.000001,98.6019239 C654.000001,132.046814 666.433596,158.601929 712.390626,158.601924 C766.241108,158.601918 873.942071,158.601924 873.942071,158.601924 C873.942071,158.601924 921.151411,155.931386 921.151402,204.932481 C921.151392,253.933576 921.151402,437.260596 921.151402,437.260596 C921.151402,437.260596 921.151411,477.598312 878.313381,477.598314 C835.475351,477.598316 789.236494,477.598314 789.236494,477.598314 C789.236494,477.598314 720.780592,469.302414 720.78059,541.995252 C720.780589,614.688089 720.78059,711.054178 720.78059,711.054178"></path>
        <path id="path-4" d="M1826.00756,413.471472 L1798.79422,413.471472 C1793.93758,413.471472 1790,409.490905 1790,404.57873 C1790,400.144223 1793.21079,396.468364 1797.41096,395.797756 C1797.35745,395.485555 1797.3282,395.165861 1797.3282,394.8368 C1797.3282,391.724778 1799.82466,389.202816 1802.90167,389.202816 C1804.27497,389.202816 1805.53439,389.704835 1806.50385,390.539037 C1808.23494,386.597808 1810.45139,383 1816.67635,383 C1824.22358,383 1827.79901,388.885619 1827.79901,395.095303 C1827.79901,395.353806 1827.78905,395.612308 1827.77225,395.865816 C1831.78263,396.693149 1834.80177,400.278469 1834.80177,404.57873 C1834.80177,409.490905 1830.8642,413.471472 1826.00756,413.471472 Z"></path>
    </defs>
    <g id="天气数据API" stroke="none" stroke-width="1" fill="none" fill-rule="evenodd">
        <g id="Slice" transform="translate(-362.000000, -76.000000)">
            <g id="Group" transform="translate(47.000000, 76.000000)">
                <mask id="mask-2" fill="white">
                    <use xlink:href="#path-1"></use>
                </mask>
                <use id="Mask-Copy-4" xlink:href="#path-1"></use>
                <path d="M1098.02809,2 L1098.02809,37.2536907 L1098.02809,75.0427708 L1098.02809,113.842894 L1098.02809,464.972906 C1098.02809,464.972906 1094.38356,540.582031 1170.11403,540.582031 C1245.8445,540.582031 1250.64528,540.582031 1250.64528,540.582031 C1250.64528,540.582031 1309.01247,540.582031 1309.01247,596.0625 C1309.01247,651.542969 1309.01247,743.331047 1309.01247,743.331047" id="Path-396" stroke="#372855" stroke-width="30" mask="url(#mask-2)"></path>
                <rect id="Rectangle-111" stroke="#6A8FFF" stroke-width="30" opacity="0.9" mask="url(#mask-2)" x="465" y="-128" width="301" height="349" rx="30"></rect>
                <rect id="Rectangle-111-Copy-3" stroke="#372856" stroke-width="30" mask="url(#mask-2)" x="1583" y="-144" width="474" height="340" rx="30"></rect>
                <path d="M2229.54199,642.600258 L2229.54199,518.625916 C2229.54199,486.923035 2205.72168,469.004211 2179.3306,469.004211 L1964.55722,469.004211 C1913.00178,469.004211 1911,433.209854 1911,416.644531 L1911,-34" id="Rectangle-111-Copy-2" stroke="#698CFF" stroke-width="30" opacity="0.9" mask="url(#mask-2)">
                    <g transform="translate(2070.270996, 304.300129) scale(1, -1) translate(-2070.270996, -304.300129) "></g>
                </path>
                <rect id="Rectangle-119" fill-opacity="0.9" fill="#372856" opacity="0.9" mask="url(#mask-2)" x="1896" y="181" width="30" height="30"></rect>
                <g id="Path-393" opacity="0.9">
                    <use stroke="#60D4A3" stroke-width="30" mask="url(#mask-2)" transform="translate(787.575701, 335.527089) scale(-1, 1) translate(-787.575701, -335.527089) " xlink:href="#path-3"></use>
                    <use stroke="none" xlink:href="#path-3"></use>
                </g>
                <rect id="Rectangle-111-Copy" stroke="#6888FF" stroke-width="30" opacity="0.9" mask="url(#mask-2)" x="345" y="586" width="636" height="236" rx="50"></rect>
                <path d="M1424,694.802559 C1424,677.25655 1425.21027,568.535613 1538.59665,568.535614 C1651.98303,568.535615 1724.76218,568.535609 1724.76218,568.535609 C1724.76218,568.535609 1810.0452,571.776657 1810.0452,485.770675 C1810.0452,399.764694 1810.0452,445.475266 1810.0452,427.288292 C1810.0452,409.101318 1812.13493,326.000001 1916.98148,326 C1971.91626,326 1943.48352,326 2003.19247,326 C2062.90143,326 2108.49652,357.050013 2108.49657,429.474419 C2108.49661,501.898825 2108.49654,716.180984 2108.49654,716.180984 L1438.5587,716.180984 C1438.5587,716.180984 1424,712.348567 1424,694.802559 Z" id="Path-394" stroke="#60D4A3" stroke-width="60" opacity="0.9" mask="url(#mask-2)"></path>
                <ellipse id="Oval-64-Copy-2" fill="#7DE4B9" mask="url(#mask-2)" cx="1810" cy="435.5" rx="29" ry="10.5"></ellipse>
                <path d="M653.553519,297.686697 C661.038921,297.686697 667.107038,295.48962 667.107038,292.779388 C667.107038,290.069157 661.038921,287.87208 653.553519,287.87208 C646.068117,287.87208 640,290.069157 640,292.779388 C640,295.48962 646.068117,297.686697 653.553519,297.686697 Z" id="Oval-64-Copy-3" fill="#7DE4B9" mask="url(#mask-2)"></path>
                <path d="M1801.5,408.5 L1795.5,435.5" id="Line" stroke="#FFFFFF" stroke-width="1.5" stroke-linecap="square" stroke-dasharray="2,4" mask="url(#mask-2)"></path>
                <path d="M1807.5,408.5 L1801.5,435.5" id="Line-Copy-4" stroke="#FFFFFF" stroke-width="1.5" stroke-linecap="square" stroke-dasharray="2,4" mask="url(#mask-2)"></path>
                <path d="M1813.5,408.5 L1807.5,435.5" id="Line-Copy-5" stroke="#FFFFFF" stroke-width="1.5" stroke-linecap="square" stroke-dasharray="2,4" mask="url(#mask-2)"></path>
                <path d="M1819.5,408.5 L1813.5,435.5" id="Line-Copy-6" stroke="#FFFFFF" stroke-width="1.5" stroke-linecap="square" stroke-dasharray="2,4" mask="url(#mask-2)"></path>
                <path d="M1825.5,408.5 L1819.5,435.5" id="Line-Copy-7" stroke="#FFFFFF" stroke-width="1.5" stroke-linecap="square" stroke-dasharray="2,4" mask="url(#mask-2)"></path>
                <circle id="Oval-65" fill="#7BE4B8" mask="url(#mask-2)" cx="1812" cy="468" r="6"></circle>
                <ellipse id="Oval-65-Copy-2" fill="#7BE4B8" mask="url(#mask-2)" cx="654.488245" cy="307.968677" rx="2.80417639" ry="2.80417639"></ellipse>
                <circle id="Oval-65-Copy" fill="#7BE4B8" mask="url(#mask-2)" cx="1800" cy="490" r="4"></circle>
                <ellipse id="Oval-65-Copy-3" fill="#7BE4B8" mask="url(#mask-2)" cx="648.879892" cy="318.250657" rx="1.86945093" ry="1.86945093"></ellipse>
                <circle id="Oval-65-Copy" fill="#7BE4B8" mask="url(#mask-2)" cx="1822" cy="510" r="3"></circle>
                <ellipse id="Oval-65-Copy-4" fill="#7BE4B8" mask="url(#mask-2)" cx="659.161872" cy="327.597912" rx="1.4020882" ry="1.4020882"></ellipse>
                <rect id="Rectangle-119" fill="#698CFF" opacity="0.9" mask="url(#mask-2)" x="751" y="143" width="30" height="31"></rect>
                <g id="black">
                    <use fill="none" mask="url(#mask-2)" xlink:href="#path-4"></use>
                    <use fill="#FFFFFF" fill-rule="evenodd" xlink:href="#path-4"></use>
                </g>
            </g>
        </g>
    </g>
</svg>